<?xml version="1.0" standalone="no"?>
<!DOCTYPE svg PUBLIC "-//W3C//DTD SVG 20010904//EN"
 "http://www.w3.org/TR/2001/REC-SVG-20010904/DTD/svg10.dtd">
<svg version="1.0" xmlns="http://www.w3.org/2000/svg"
 width="308.000000pt" height="308.000000pt" viewBox="0 0 308.000000 308.000000"
 preserveAspectRatio="xMidYMid meet">
<metadata>
Created by potrace 1.11, written by Peter Selinger 2001-2013
</metadata>
<g transform="translate(0.000000,308.000000) scale(0.100000,-0.100000)"
fill="#000000" stroke="none">
<path d="M0 1540 l0 -1540 1540 0 1540 0 0 1540 0 1540 -1540 0 -1540 0 0
-1540z m1510 1335 l0 -85 -100 0 -100 0 0 85 0 85 100 0 100 0 0 -85z m-250
-270 l0 -85 -100 0 -100 0 0 85 0 85 100 0 100 0 0 -85z m250 0 l0 -85 -100 0
-100 0 0 85 0 85 100 0 100 0 0 -85z m1000 0 l0 -85 -100 0 -100 0 0 85 0 85
100 0 100 0 0 -85z m-1250 -270 l0 -85 -100 0 -100 0 0 85 0 85 100 0 100 0 0
-85z m250 0 l0 -85 -100 0 -100 0 0 85 0 85 100 0 100 0 0 -85z m750 0 l0 -85
-100 0 -100 0 0 85 0 85 100 0 100 0 0 -85z m250 0 l0 -85 -100 0 -100 0 0 85
0 85 100 0 100 0 0 -85z m-1750 -270 l0 -85 -100 0 -100 0 0 85 0 85 100 0
100 0 0 -85z m500 0 l0 -85 -100 0 -100 0 0 85 0 85 100 0 100 0 0 -85z m250
0 l0 -85 -100 0 -100 0 0 85 0 85 100 0 100 0 0 -85z m750 0 l0 -85 -100 0
-100 0 0 85 0 85 100 0 100 0 0 -85z m250 0 l0 -85 -100 0 -100 0 0 85 0 85
100 0 100 0 0 -85z m-1750 -270 l0 -85 -100 0 -100 0 0 85 0 85 100 0 100 0 0
-85z m500 0 l0 -85 -100 0 -100 0 0 85 0 85 100 0 100 0 0 -85z m250 0 l0 -85
-100 0 -100 0 0 85 0 85 100 0 100 0 0 -85z m250 0 l0 -85 -100 0 -100 0 0 85
0 85 100 0 100 0 0 -85z m500 0 l0 -85 -100 0 -100 0 0 85 0 85 100 0 100 0 0
-85z m250 0 l0 -85 -100 0 -100 0 0 85 0 85 100 0 100 0 0 -85z m-1750 -270
l0 -85 -100 0 -100 0 0 85 0 85 100 0 100 0 0 -85z m250 0 l0 -85 -100 0 -100
0 0 85 0 85 100 0 100 0 0 -85z m250 0 l0 -85 -100 0 -100 0 0 85 0 85 100 0
100 0 0 -85z m250 0 l0 -85 -100 0 -100 0 0 85 0 85 100 0 100 0 0 -85z m250
0 l0 -85 -100 0 -100 0 0 85 0 85 100 0 100 0 0 -85z m500 0 l0 -85 -100 0
-100 0 0 85 0 85 100 0 100 0 0 -85z m250 0 l0 -85 -100 0 -100 0 0 85 0 85
100 0 100 0 0 -85z m250 0 l0 -85 -100 0 -100 0 0 85 0 85 100 0 100 0 0 -85z
m-2000 -270 l0 -85 -100 0 -100 0 0 85 0 85 100 0 100 0 0 -85z m250 0 l0 -85
-100 0 -100 0 0 85 0 85 100 0 100 0 0 -85z m250 0 l0 -85 -100 0 -100 0 0 85
0 85 100 0 100 0 0 -85z m250 0 l0 -85 -100 0 -100 0 0 85 0 85 100 0 100 0 0
-85z m250 0 l0 -85 -100 0 -100 0 0 85 0 85 100 0 100 0 0 -85z m250 0 l0 -85
-100 0 -100 0 0 85 0 85 100 0 100 0 0 -85z m250 0 l0 -85 -100 0 -100 0 0 85
0 85 100 0 100 0 0 -85z m250 0 l0 -85 -100 0 -100 0 0 85 0 85 100 0 100 0 0
-85z m250 0 l0 -85 -100 0 -100 0 0 85 0 85 100 0 100 0 0 -85z m-2250 -270
l0 -85 -100 0 -100 0 0 85 0 85 100 0 100 0 0 -85z m250 0 l0 -85 -100 0 -100
0 0 85 0 85 100 0 100 0 0 -85z m250 0 l0 -85 -100 0 -100 0 0 85 0 85 100 0
100 0 0 -85z m250 0 l0 -85 -100 0 -100 0 0 85 0 85 100 0 100 0 0 -85z m250
0 l0 -85 -100 0 -100 0 0 85 0 85 100 0 100 0 0 -85z m250 0 l0 -85 -100 0
-100 0 0 85 0 85 100 0 100 0 0 -85z m250 0 l0 -85 -100 0 -100 0 0 85 0 85
100 0 100 0 0 -85z m250 0 l0 -85 -100 0 -100 0 0 85 0 85 100 0 100 0 0 -85z
m250 0 l0 -85 -100 0 -100 0 0 85 0 85 100 0 100 0 0 -85z m250 0 l0 -85 -100
0 -100 0 0 85 0 85 100 0 100 0 0 -85z m-2250 -270 l0 -85 -100 0 -100 0 0 85
0 85 100 0 100 0 0 -85z m250 0 l0 -85 -100 0 -100 0 0 85 0 85 100 0 100 0 0
-85z m250 0 l0 -85 -100 0 -100 0 0 85 0 85 100 0 100 0 0 -85z m250 0 l0 -85
-100 0 -100 0 0 85 0 85 100 0 100 0 0 -85z m250 0 l0 -85 -100 0 -100 0 0 85
0 85 100 0 100 0 0 -85z m250 0 l0 -85 -100 0 -100 0 0 85 0 85 100 0 100 0 0
-85z m250 0 l0 -85 -100 0 -100 0 0 85 0 85 100 0 100 0 0 -85z m250 0 l0 -85
-100 0 -100 0 0 85 0 85 100 0 100 0 0 -85z m250 0 l0 -85 -100 0 -100 0 0 85
0 85 100 0 100 0 0 -85z m250 0 l0 -85 -100 0 -100 0 0 85 0 85 100 0 100 0 0
-85z m250 0 l0 -85 -100 0 -100 0 0 85 0 85 100 0 100 0 0 -85z m-2750 -270
l0 -85 -100 0 -100 0 0 85 0 85 100 0 100 0 0 -85z m250 0 l0 -85 -100 0 -100
0 0 85 0 85 100 0 100 0 0 -85z m250 0 l0 -85 -100 0 -100 0 0 85 0 85 100 0
100 0 0 -85z m250 0 l0 -85 -100 0 -100 0 0 85 0 85 100 0 100 0 0 -85z m250
0 l0 -85 -100 0 -100 0 0 85 0 85 100 0 100 0 0 -85z m250 0 l0 -85 -100 0
-100 0 0 85 0 85 100 0 100 0 0 -85z m250 0 l0 -85 -100 0 -100 0 0 85 0 85
100 0 100 0 0 -85z m250 0 l0 -85 -100 0 -100 0 0 85 0 85 100 0 100 0 0 -85z
m250 0 l0 -85 -100 0 -100 0 0 85 0 85 100 0 100 0 0 -85z m250 0 l0 -85 -100
0 -100 0 0 85 0 85 100 0 100 0 0 -85z m250 0 l0 -85 -100 0 -100 0 0 85 0 85
100 0 100 0 0 -85z m250 0 l0 -85 -100 0 -100 0 0 85 0 85 100 0 100 0 0 -85z
m-2750 -270 l0 -85 -100 0 -100 0 0 85 0 85 100 0 100 0 0 -85z m250 0 l0 -85
-100 0 -100 0 0 85 0 85 100 0 100 0 0 -85z m250 0 l0 -85 -100 0 -100 0 0 85
0 85 100 0 100 0 0 -85z m250 0 l0 -85 -100 0 -100 0 0 85 0 85 100 0 100 0 0
-85z m250 0 l0 -85 -100 0 -100 0 0 85 0 85 100 0 100 0 0 -85z m250 0 l0 -85
-100 0 -100 0 0 85 0 85 100 0 100 0 0 -85z m250 0 l0 -85 -100 0 -100 0 0 85
0 85 100 0 100 0 0 -85z m250 0 l0 -85 -100 0 -100 0 0 85 0 85 100 0 100 0 0
-85z m250 0 l0 -85 -100 0 -100 0 0 85 0 85 100 0 100 0 0 -85z m250 0 l0 -85
-100 0 -100 0 0 85 0 85 100 0 100 0 0 -85z m250 0 l0 -85 -100 0 -100 0 0 85
0 85 100 0 100 0 0 -85z m250 0 l0 -85 -100 0 -100 0 0 85 0 85 100 0 100 0 0
-85z"/>
</g>
</svg>
